<?xml version="1.0" encoding="UTF-8"?> <svg xmlns="http://www.w3.org/2000/svg" id="Layer_1" data-name="Layer 1" viewBox="0 0 500 500"><defs><style> .cls-1 { fill: #e01d3c; } .cls-1, .cls-2, .cls-3 { stroke: #231f20; stroke-linecap: round; stroke-miterlimit: 10; stroke-width: 4.25px; } .cls-2 { fill: none; } .cls-3 { fill: #96bf83; } </style></defs><title>Master_Icons_2020.05.14-FA</title><path class="cls-1" d="M250,490a30,30,0,0,0,28.39-20.32,30,30,0,0,0,46.78-32.83,30,30,0,0,0,40.34-40h.4a30,30,0,0,0,20.93-51.49c.77.06,1.55.1,2.34.1a30,30,0,0,0,13.33-56.87,30,30,0,0,0-4.95-59.1,30,30,0,0,0-18.94-56.8A30,30,0,0,0,333.77,133a30.49,30.49,0,0,0,.23-3.73,30,30,0,0,0-54.93-16.68,30,30,0,0,0-58.14,0A30,30,0,0,0,166,129.25a30.49,30.49,0,0,0,.23,3.73,30,30,0,0,0-44.85,39.71,30,30,0,0,0-18.94,56.8,30,30,0,0,0-5,59.1,30,30,0,0,0,13.33,56.87c.79,0,1.57,0,2.34-.1a30,30,0,0,0,20.93,51.49h.4a30,30,0,0,0,40.34,40,30,30,0,0,0,46.78,32.83A30,30,0,0,0,250,490Z"></path><path class="cls-2" d="M170,390a30,30,0,0,0,51.89,20.5,30,30,0,0,0,56.22,0A30,30,0,0,0,330,390"></path><path class="cls-3" d="M250,10c-30,0-10,150,0,150S280,10,250,10Z"></path><path class="cls-3" d="M130,70c30,0,70,30,80,50,0-30-20-60-40-80,40,10,70,50,80,80,10-30,40-70,80-80-20,20-40,50-40,80,10-20,50-50,80-50-50,30-30,100-120,100S180,100,130,70Z"></path><path class="cls-1" d="M330,180a30,30,0,0,0-51.89-20.5,30,30,0,0,0-56.22,0A30,30,0,0,0,170,180"></path><path class="cls-2" d="M145,320a30,30,0,0,0,51.89,20.5A30,30,0,0,0,250,346.58a30,30,0,0,0,53.11-6.08A30,30,0,0,0,355,320"></path><path class="cls-2" d="M145,190a30,30,0,0,0,51.89,20.5A30,30,0,0,0,250,216.58a30,30,0,0,0,53.11-6.08A30,30,0,0,0,355,190"></path><path class="cls-2" d="M120,250a30,30,0,0,0,51.89,20.5,30,30,0,0,0,50,10,30,30,0,0,0,56.22,0,30,30,0,0,0,50-10A30,30,0,0,0,380,250"></path></svg> 