<?xml version="1.0" encoding="UTF-8"?> <svg xmlns="http://www.w3.org/2000/svg" id="Layer_1" data-name="Layer 1" viewBox="0 0 500 500"><defs><style> .cls-1 { fill: #e01d3c; } .cls-1, .cls-2, .cls-3, .cls-4 { stroke: #231f20; stroke-miterlimit: 10; } .cls-1, .cls-2 { stroke-linecap: round; } .cls-1, .cls-2, .cls-3 { stroke-width: 4.25px; } .cls-2 { fill: #96bf83; } .cls-3, .cls-4 { fill: #fff; } .cls-4 { stroke-width: 4.25px; } </style></defs><title>Master_Icons_2020.05.14-FA</title><g><g><path class="cls-1" d="M463.12,302c0-102.86-118.22-164.12-186.25-96.09C220.68,135.78,90.63,199.1,90.63,302S174,488.21,276.87,488.21,463.12,404.82,463.12,302Z"></path><path class="cls-2" d="M235.16,71.93A204.09,204.09,0,0,0,89.87,11.79a18.43,18.43,0,0,0,0,36.85A168.47,168.47,0,0,1,258.45,217.22c0,10.18,11.37,5.43,21.55,5.43s15.3,4.75,15.3-5.43A204.11,204.11,0,0,0,235.16,71.93Z"></path><path class="cls-1" d="M319.59,231a60.39,60.39,0,0,0-85.43,0"></path></g><path class="cls-3" d="M164.93,242.64a20,20,0,0,1,16.62,31.1,70.88,70.88,0,0,0,0,77.81,20,20,0,0,1-33.28,22.19c-24.36-36.55-24.36-85.65,0-122.19A20,20,0,0,1,164.93,242.64Z"></path></g><circle class="cls-4" cx="210" cy="420" r="20"></circle></svg> 