<?xml version="1.0" encoding="UTF-8"?> <svg xmlns="http://www.w3.org/2000/svg" id="Layer_1" data-name="Layer 1" viewBox="0 0 500 500"><defs><style> .cls-1 { fill: #fff; } .cls-1, .cls-2, .cls-3, .cls-4 { stroke: #241f20; stroke-miterlimit: 10; stroke-width: 4.25px; } .cls-2 { fill: #bbbdbf; } .cls-2, .cls-3, .cls-4 { stroke-linecap: round; } .cls-3 { fill: none; } .cls-4 { fill: #fff7ec; } </style></defs><title>Master_Icons_2020.05.14-FA</title><g><path class="cls-1" d="M311.24,469.34c72-1.26,130.47-60.07,131.35-132.06a133.46,133.46,0,0,0-48-104.33c-30.92-25.85-48.28-64.47-48.28-104.78h0c0-53.1-42.47-97.11-95.57-97.51a96.31,96.31,0,0,0-97,96.3h0a140.15,140.15,0,0,1-49.21,106.77A133.44,133.44,0,0,0,57.41,337.28c.88,72,59.37,130.8,131.35,132.06Z"></path><path class="cls-1" d="M250,254.7c48.06,0,48.06,22.06,96.12,22.06,32.64,0,43.12-4.52,61.53-12.73A122.66,122.66,0,0,0,387,242c-33.36-27.89-52.5-69.37-52.5-113.81,0-46.93-37.63-85.39-83.89-85.74H250A84.63,84.63,0,0,0,165.47,127,151.7,151.7,0,0,1,112.12,242.7,122.92,122.92,0,0,0,92.37,264c18.4,8.2,28.89,12.72,61.51,12.72C201.94,276.76,201.94,254.7,250,254.7Z"></path><path class="cls-2" d="M346.3,105.56c0-35.46-43.11-74.9-96.3-74.9s-96.3,39.44-96.3,74.9"></path><path class="cls-2" d="M346.3,105.56H153.7a32.1,32.1,0,1,0,0,64.2H346.3a32.1,32.1,0,0,0,0-64.2Z"></path><circle class="cls-2" cx="207.2" cy="73.46" r="10.7"></circle><circle class="cls-2" cx="250" cy="62.76" r="10.7"></circle><circle class="cls-2" cx="292.8" cy="73.46" r="10.7"></circle><g><path class="cls-2" d="M153.7,105.56c-42,.19-42,64,0,64.2"></path><path class="cls-2" d="M177.77,105.56c-31.49.14-31.47,64.06,0,64.2"></path><path class="cls-2" d="M201.85,105.56c-21,.1-21,64.11,0,64.2"></path><path class="cls-2" d="M225.92,105.56c-10.49,0-10.49,64.15,0,64.2"></path><line class="cls-3" x1="250" y1="105.56" x2="250" y2="169.76"></line></g><g><path class="cls-2" d="M346.3,169.76c42-.19,42-64,0-64.2"></path><path class="cls-2" d="M322.22,169.76c31.5-.14,31.48-64.06,0-64.2"></path><path class="cls-2" d="M298.15,169.76c21-.1,21-64.11,0-64.2"></path><path class="cls-2" d="M274.07,169.76c10.5,0,10.5-64.15,0-64.2"></path><line class="cls-3" x1="250" y1="169.76" x2="250" y2="105.56"></line></g><path class="cls-4" d="M104.77,421.53a121.22,121.22,0,0,0,84.09,36H311.14A122,122,0,0,0,407.64,264c-18.41,8.21-28.89,12.73-61.53,12.73-48.06,0-48.06-22.06-96.12-22.06s-48.05,22.06-96.11,22.06c-32.62,0-43.11-4.52-61.51-12.72a121.7,121.7,0,0,0,12.4,157.49Z"></path><path class="cls-3" d="M189.12,430.82a94.62,94.62,0,0,1-65.39-28.15"></path><path class="cls-3" d="M404.07,336.81a94.15,94.15,0,0,1-13.72,47.9"></path><path class="cls-3" d="M213.1,290c10.86-5,18.71-8.59,36.89-8.59s26,3.6,36.9,8.59"></path></g></svg> 