<?xml version="1.0" encoding="UTF-8"?> <svg xmlns="http://www.w3.org/2000/svg" xmlns:xlink="http://www.w3.org/1999/xlink" id="Layer_1" data-name="Layer 1" viewBox="0 0 500 500"><defs><style> .cls-1, .cls-4 { fill: none; } .cls-2 { fill: #94525c; } .cls-2, .cls-4, .cls-5, .cls-6, .cls-7, .cls-8, .cls-9 { stroke: #231f20; stroke-miterlimit: 10; } .cls-2, .cls-4, .cls-6, .cls-7, .cls-8, .cls-9 { stroke-width: 4.25px; } .cls-3 { clip-path: url(#clip-path); } .cls-4 { stroke-linecap: round; } .cls-5, .cls-8 { fill: #d8444f; } .cls-5 { stroke-width: 4.34px; } .cls-6 { fill: #edb24b; } .cls-7 { fill: #f1e3d1; } .cls-9 { fill: url(#New_Pattern); } </style><clipPath id="clip-path"><path class="cls-1" d="M290-400c-14.55-3.64,2.6,5.29-7.26,12.65a55.24,55.24,0,0,1-65.48,0h0c-9.86-7.36,7.29-16.29-7.26-12.65C170-390,80-350,80-230S130-60,250-60s170-50,170-170S330-390,290-400Z"></path></clipPath><pattern id="New_Pattern" data-name="New Pattern" width="198.38" height="198.38" patternTransform="translate(316.19 175.2)" patternUnits="userSpaceOnUse" viewBox="0 0 198.38 198.38"><rect class="cls-1" width="198.38" height="198.38"></rect><path class="cls-2" d="M198.53,199.09h0a24.09,24.09,0,0,0-.31,48.17h0a24.09,24.09,0,1,0,.31-48.17Z"></path><path class="cls-2" d="M.15,199.09h0A24.09,24.09,0,0,0-24.09,223,24.08,24.08,0,0,0-.15,247.26h0a24.09,24.09,0,0,0,24.24-23.93A24.09,24.09,0,0,0,.15,199.09Z"></path><path class="cls-2" d="M198.53,149.49h0a24.09,24.09,0,0,0-.31,48.18h0a24.09,24.09,0,0,0,.31-48.18Z"></path><path class="cls-2" d="M148.94,186.69h0a24.09,24.09,0,0,0-.31,48.17h0a24.09,24.09,0,1,0,.31-48.17Z"></path><path class="cls-2" d="M99.34,174.29h0a24.09,24.09,0,1,0-.3,48.18h0a24.09,24.09,0,0,0,.3-48.18Z"></path><path class="cls-2" d="M49.75,161.89h0a24.09,24.09,0,0,0-.31,48.18h0a24.09,24.09,0,0,0,.31-48.18Z"></path><path class="cls-2" d="M.15,149.49h0a24.1,24.1,0,0,0-24.24,23.94A24.1,24.1,0,0,0-.15,197.67h0a24.1,24.1,0,0,0,24.24-23.94A24.1,24.1,0,0,0,.15,149.49Z"></path><path class="cls-2" d="M198.53,99.9h0a24.09,24.09,0,0,0-.31,48.17h0a24.09,24.09,0,1,0,.31-48.17Z"></path><path class="cls-2" d="M148.94,137.09h0a24.09,24.09,0,0,0-.31,48.18h0a24.09,24.09,0,0,0,.31-48.18Z"></path><path class="cls-2" d="M99.34,124.7h0a24.09,24.09,0,1,0-.3,48.17h0a24.09,24.09,0,1,0,.3-48.17Z"></path><path class="cls-2" d="M49.75,112.3h0a24.09,24.09,0,1,0-.31,48.17h0a24.09,24.09,0,0,0,.31-48.17Z"></path><path class="cls-2" d="M.15,99.9h0a24.09,24.09,0,0,0-24.24,23.93A24.08,24.08,0,0,0-.15,148.07h0a24.09,24.09,0,0,0,24.24-23.93A24.09,24.09,0,0,0,.15,99.9Z"></path><path class="cls-2" d="M198.53,50.3h0a24.09,24.09,0,0,0-.31,48.18h0a24.09,24.09,0,0,0,.31-48.18Z"></path><path class="cls-2" d="M148.94,87.5h0a24.09,24.09,0,0,0-.31,48.18h0a24.09,24.09,0,0,0,.31-48.18Z"></path><path class="cls-2" d="M99.34,75.1h0a24.09,24.09,0,1,0-.3,48.18h0a24.09,24.09,0,0,0,.3-48.18Z"></path><path class="cls-2" d="M49.75,62.7h0a24.09,24.09,0,0,0-.31,48.18h0a24.09,24.09,0,0,0,.31-48.18Z"></path><path class="cls-2" d="M.15,50.3h0A24.1,24.1,0,0,0-24.09,74.24,24.1,24.1,0,0,0-.15,98.48h0A24.09,24.09,0,0,0,24.09,74.55,24.1,24.1,0,0,0,.15,50.3Z"></path><path class="cls-2" d="M198.53.71h0a24.09,24.09,0,0,0-.31,48.18h0A24.09,24.09,0,0,0,198.53.71Z"></path><path class="cls-2" d="M148.94,37.91h0a24.09,24.09,0,1,0-.31,48.17h0a24.09,24.09,0,0,0,.31-48.17Z"></path><path class="cls-2" d="M99.34,25.51h0A24.09,24.09,0,1,0,99,73.68h0a24.09,24.09,0,1,0,.3-48.17Z"></path><path class="cls-2" d="M49.75,13.11h0a24.09,24.09,0,0,0-.31,48.17h0a24.09,24.09,0,1,0,.31-48.17Z"></path><path class="cls-2" d="M.15.71h0A24.09,24.09,0,0,0-24.09,24.64,24.1,24.1,0,0,0-.15,48.89h0A24.1,24.1,0,0,0,24.09,25,24.09,24.09,0,0,0,.15.71Z"></path><path class="cls-2" d="M198.53-48.88h0a24.08,24.08,0,0,0-24.24,23.93A24.08,24.08,0,0,0,198.22-.71h0a24.08,24.08,0,0,0,24.24-23.93A24.08,24.08,0,0,0,198.53-48.88Z"></path><path class="cls-2" d="M148.94-11.69h0a24.09,24.09,0,0,0-.31,48.18h0a24.09,24.09,0,0,0,.31-48.18Z"></path><path class="cls-2" d="M99.34-24.09h0A24.1,24.1,0,0,0,75.1-.15,24.1,24.1,0,0,0,99,24.09h0A24.1,24.1,0,0,0,123.28.15,24.1,24.1,0,0,0,99.34-24.09Z"></path><path class="cls-2" d="M49.75-36.49h0A24.09,24.09,0,0,0,25.51-12.55,24.09,24.09,0,0,0,49.44,11.69h0A24.09,24.09,0,0,0,73.68-12.25,24.09,24.09,0,0,0,49.75-36.49Z"></path><path class="cls-2" d="M.15-48.88h0A24.09,24.09,0,0,0-24.09-24.95,24.09,24.09,0,0,0-.15-.71h0A24.09,24.09,0,0,0,24.09-24.64,24.08,24.08,0,0,0,.15-48.88Z"></path></pattern></defs><title>Master_Icons_2020.05.14-FA</title><g class="cls-3"><g><path class="cls-4" d="M137.65,18c3.53-3.42,12.38,2.65,16.11,1.28,4.19-1.53,6.82-11.7,11.17-11.65s7.95,10.57,12.3,11.13,9.4-8.83,13.7-8.78,10.31,9.26,14.5,7.73c3.73-1.37,2.17-11.86,5.7-15.29s14-1.55,15.45-5.24c1.66-4.15-7.38-10.38-7.3-14.73s9.62-9.06,9.19-13.43-10.84-8.32-10.76-12.62,10.33-6.68,12-10.82c1.48-3.69-4.33-12.72-.8-16.14s12.38,2.65,16.11,1.28C249.2-70.85,251.83-81,256.18-81s7.95,10.57,12.3,11.14,9.4-8.84,13.69-8.79,10.31,9.27,14.5,7.73c3.73-1.37,2.18-11.86,5.71-15.28s14-1.56,15.44-5.25c1.66-4.14-7.37-10.37-7.29-14.72s9.62-9.06,9.19-13.43S308.88-127.9,309-132.19s10.32-6.68,12-10.82c1.48-3.69-4.33-12.72-.8-16.14s12.38,2.65,16.11,1.28c4.2-1.54,6.83-11.71,11.18-11.66s7.94,10.57,12.29,11.13,9.4-8.83,13.7-8.78,10.31,9.27,14.5,7.73c3.73-1.37,2.18-11.86,5.71-15.28s14-1.56,15.44-5.25c1.66-4.14-7.37-10.38-7.29-14.73s9.62-9.06,9.19-13.42-10.85-8.33-10.77-12.63,10.33-6.67,12-10.82c1.48-3.69-4.33-12.71-.8-16.14s12.38,2.65,16.11,1.28c4.19-1.53,6.83-11.71,11.18-11.66S446.63-247.53,451-247s9.39-8.84,13.69-8.79,10.31,9.27,14.5,7.73c3.74-1.37,2.18-11.86,5.71-15.28s14-1.56,15.45-5.25c1.66-4.14-7.38-10.38-7.3-14.73s9.62-9.06,9.19-13.42-10.84-8.33-10.76-12.63,10.33-6.68,12-10.82c1.48-3.69-4.33-12.72-.8-16.14"></path><path class="cls-4" d="M180.08,59.15c3.52-3.42,12.38,2.65,16.11,1.28,4.19-1.53,6.82-11.71,11.17-11.66s7.95,10.57,12.3,11.14,9.39-8.83,13.69-8.78,10.31,9.26,14.5,7.72c3.73-1.36,2.18-11.85,5.71-15.28s14-1.55,15.44-5.24c1.66-4.15-7.37-10.38-7.29-14.73s9.62-9.06,9.19-13.43S260.06,1.85,260.14-2.45s10.32-6.68,12-10.82c1.48-3.69-4.32-12.72-.8-16.14s12.38,2.65,16.11,1.28c4.2-1.54,6.83-11.71,11.18-11.66s7.95,10.57,12.29,11.13,9.4-8.83,13.7-8.78,10.31,9.27,14.5,7.73c3.73-1.37,2.18-11.86,5.7-15.28s14-1.56,15.45-5.25c1.66-4.14-7.37-10.37-7.29-14.72s9.62-9.07,9.18-13.43S351.3-86.72,351.38-91s10.33-6.68,12-10.82c1.48-3.69-4.33-12.72-.8-16.14s12.38,2.64,16.11,1.28c4.19-1.54,6.82-11.71,11.17-11.66s7.95,10.57,12.3,11.13,9.4-8.83,13.7-8.78,10.31,9.26,14.5,7.73c3.73-1.37,2.17-11.86,5.7-15.28s14-1.56,15.45-5.25c1.66-4.15-7.38-10.38-7.3-14.73s9.62-9.06,9.19-13.42-10.84-8.33-10.76-12.63,10.33-6.67,12-10.82c1.48-3.69-4.33-12.72-.8-16.14s12.38,2.65,16.11,1.28c4.19-1.54,6.82-11.71,11.17-11.66s7.95,10.57,12.3,11.13,9.4-8.83,13.7-8.78,10.31,9.27,14.5,7.73c3.73-1.37,2.18-11.86,5.7-15.28s14-1.56,15.45-5.25c1.66-4.15-7.37-10.38-7.29-14.73s9.62-9.06,9.19-13.43-10.84-8.32-10.76-12.62,10.32-6.68,12-10.82c1.47-3.69-4.33-12.72-.8-16.15"></path></g></g><g><path class="cls-5" d="M473.46,290.71C473.46,400.77,373.41,490,250,490S26.54,400.77,26.54,290.71,126.59,67.92,250,67.92,473.46,180.64,473.46,290.71Z"></path><path class="cls-6" d="M303.72,50.7a52.82,52.82,0,0,0-11.25,1.15A52.37,52.37,0,0,1,288,121.32h0a52,52,0,0,1-25.88,13.94,52.24,52.24,0,0,0,41,20.17h0a52.35,52.35,0,0,0,52.69-52L356.09,51Z"></path><path class="cls-6" d="M213.92,120.85A52.38,52.38,0,0,1,209.8,52,52.72,52.72,0,0,0,199,50.8l-52.37-.33-.33,52.36a52.37,52.37,0,0,0,52,52.7h0a52.28,52.28,0,0,0,41.74-20.31,52.14,52.14,0,0,1-26.14-14.37Z"></path><path class="cls-6" d="M292.47,51.85a53.89,53.89,0,0,0-4-4.59L251.66,10,214.4,46.79a52.44,52.44,0,0,0-.48,74.06h0a52.41,52.41,0,0,0,74.06.47h0A52.37,52.37,0,0,0,292.47,51.85Z"></path><path class="cls-7" d="M251.19,456.7c-99.67,0-180.76-74.46-180.76-166,0-45.61,19.63-93,53.86-130.08,35.38-38.31,80.45-59.42,126.9-59.42s91.51,21.11,126.9,59.42C412.32,197.69,432,245.1,432,290.71,432,382.24,350.86,456.7,251.19,456.7Z"></path><path class="cls-8" d="M134.7,170.22c-31.84,34.47-50.1,78.38-50.1,120.46,0,81.56,70.92,148.29,159.5,151.68V115.56C204.16,117.6,165.55,136.82,134.7,170.22Z"></path><path class="cls-8" d="M417.78,290.68c0-42.08-18.26-86-50.1-120.46-30.85-33.4-69.46-52.62-109.4-54.66v326.8C346.86,439,417.78,372.24,417.78,290.68Z"></path><path class="cls-9" d="M134.7,170.22c-31.84,34.47-50.1,78.38-50.1,120.46,0,81.56,70.92,148.29,159.5,151.68V115.56C204.16,117.6,165.55,136.82,134.7,170.22Z"></path><path class="cls-9" d="M417.78,290.68c0-42.08-18.26-86-50.1-120.46-30.85-33.4-69.46-52.62-109.4-54.66v326.8C346.86,439,417.78,372.24,417.78,290.68Z"></path></g></svg> 