<?xml version="1.0" encoding="UTF-8"?> <svg xmlns="http://www.w3.org/2000/svg" id="Layer_1" data-name="Layer 1" viewBox="0 0 500 500"><defs><style> .cls-1 { fill: #b291ce; } .cls-1, .cls-2, .cls-3 { stroke: #231f20; stroke-width: 4.25px; } .cls-1, .cls-3 { stroke-miterlimit: 10; } .cls-2 { fill: #f7941d; stroke-linejoin: round; } .cls-2, .cls-3 { stroke-linecap: round; } .cls-3 { fill: #fff200; } </style></defs><title>Master_Icons_2020.05.14-FA</title><g><path class="cls-1" d="M188.55,211.89h0a91.87,91.87,0,0,0,129.93,0h0a91.86,91.86,0,0,0,0-129.92l-65-65-65,65A91.86,91.86,0,0,0,188.55,211.89Z"></path><path class="cls-1" d="M168.45,334.74h0a91.87,91.87,0,0,0,33.62-125.5h0a91.88,91.88,0,0,0-125.5-33.63L-3,221.55l45.93,79.56A91.88,91.88,0,0,0,168.45,334.74Z"></path><path class="cls-1" d="M331.55,334.74h0a91.87,91.87,0,0,1-33.62-125.5h0a91.88,91.88,0,0,1,125.5-33.63L503,221.55l-45.93,79.56A91.88,91.88,0,0,1,331.55,334.74Z"></path><path class="cls-1" d="M264,391.13h0a91.88,91.88,0,0,0-91.87-91.88h0a91.89,91.89,0,0,0-91.88,91.88V483h91.88A91.87,91.87,0,0,0,264,391.13Z"></path><path class="cls-1" d="M243,391.13h0a91.88,91.88,0,0,1,91.87-91.88h0a91.88,91.88,0,0,1,91.87,91.88V483H334.88A91.87,91.87,0,0,1,243,391.13Z"></path><circle class="cls-2" cx="252.62" cy="279.22" r="97.72"></circle><circle class="cls-3" cx="252.62" cy="279.22" r="72.1"></circle></g></svg> 